<svg width="40" height="40" viewBox="0 0 40 40" fill="none" xmlns="http://www.w3.org/2000/svg">
<g clip-path="url(#clip0_169_4050)">
<path d="M29.3548 25.8632C31.7755 22.5599 32.8598 18.4644 32.3906 14.3961C31.9214 10.3277 29.9333 6.58653 26.8242 3.92101C23.7151 1.25548 19.7142 -0.13781 15.6219 0.0198727C11.5296 0.177556 7.64776 1.87459 4.75297 4.77145C1.85818 7.66831 0.163929 11.5514 0.00917493 15.6438C-0.14558 19.7362 1.25058 23.7361 3.91832 26.8433C6.58607 29.9505 10.3287 31.9359 14.3974 32.4021C18.466 32.8684 22.5608 31.7813 25.8623 29.3582H25.8598C25.9331 29.4582 26.0148 29.554 26.1048 29.6457L35.7298 39.2707C36.1986 39.7398 36.8345 40.0035 37.4977 40.0037C38.1608 40.0039 38.797 39.7407 39.2661 39.2719C39.7352 38.8032 39.9988 38.1672 39.9991 37.5041C39.9993 36.8409 39.7361 36.2048 39.2673 35.7357L29.6423 26.1107C29.553 26.0202 29.4569 25.9391 29.3548 25.8632ZM29.9998 16.2532C29.9998 18.0589 29.6441 19.8469 28.9531 21.5151C28.2621 23.1833 27.2493 24.6991 25.9725 25.9759C24.6957 27.2527 23.1799 28.2655 21.5117 28.9565C19.8435 29.6475 18.0555 30.0032 16.2498 30.0032C14.4441 30.0032 12.6561 29.6475 10.9879 28.9565C9.31968 28.2655 7.80389 27.2527 6.52708 25.9759C5.25028 24.6991 4.23746 23.1833 3.54646 21.5151C2.85546 19.8469 2.4998 18.0589 2.4998 16.2532C2.4998 12.6065 3.94846 9.10909 6.52709 6.53046C9.10571 3.95184 12.6031 2.50318 16.2498 2.50318C19.8965 2.50318 23.3939 3.95184 25.9725 6.53046C28.5511 9.10909 29.9998 12.6065 29.9998 16.2532Z" fill="#ACB3BA"/>
</g>
<defs>
<clipPath id="clip0_169_4050">
<rect width="40" height="40" fill="white"/>
</clipPath>
</defs>
</svg>
